<svg xmlns="http://www.w3.org/2000/svg" viewBox="0 0 1100 460" font-family="Arial, sans-serif" font-size="12">
  <rect width="1100" height="460" fill="#fff"/>

  <!-- ========== USERS ========== -->
  <rect x="20" y="20" width="220" height="28" fill="#fff" stroke="#000" stroke-width="1"/>
  <text x="130" y="39" text-anchor="middle" font-weight="bold" font-size="13">USERS</text>

  <rect x="20" y="48" width="60" height="26" fill="#fff" stroke="#000" stroke-width="0.8"/>
  <rect x="80" y="48" width="120" height="26" fill="#fff" stroke="#000" stroke-width="0.8"/>
  <rect x="200" y="48" width="40" height="26" fill="#fff" stroke="#000" stroke-width="0.8"/>
  <text x="26" y="65">bigint</text><text x="86" y="65">id</text><text x="220" y="65" text-anchor="middle">PK</text>

  <rect x="20" y="74" width="60" height="26" fill="#fff" stroke="#000" stroke-width="0.8"/>
  <rect x="80" y="74" width="120" height="26" fill="#fff" stroke="#000" stroke-width="0.8"/>
  <rect x="200" y="74" width="40" height="26" fill="#fff" stroke="#000" stroke-width="0.8"/>
  <text x="26" y="91">string</text><text x="86" y="91">email</text>

  <rect x="20" y="100" width="60" height="26" fill="#fff" stroke="#000" stroke-width="0.8"/>
  <rect x="80" y="100" width="120" height="26" fill="#fff" stroke="#000" stroke-width="0.8"/>
  <rect x="200" y="100" width="40" height="26" fill="#fff" stroke="#000" stroke-width="0.8"/>
  <text x="26" y="117">string</text><text x="86" y="117">encrypted_password</text>

  <rect x="20" y="126" width="60" height="26" fill="#fff" stroke="#000" stroke-width="0.8"/>
  <rect x="80" y="126" width="120" height="26" fill="#fff" stroke="#000" stroke-width="0.8"/>
  <rect x="200" y="126" width="40" height="26" fill="#fff" stroke="#000" stroke-width="0.8"/>
  <text x="26" y="143">string</text><text x="86" y="143">name</text>

  <rect x="20" y="152" width="60" height="26" fill="#fff" stroke="#000" stroke-width="0.8"/>
  <rect x="80" y="152" width="120" height="26" fill="#fff" stroke="#000" stroke-width="0.8"/>
  <rect x="200" y="152" width="40" height="26" fill="#fff" stroke="#000" stroke-width="0.8"/>
  <text x="26" y="169">datetime</text><text x="86" y="169">created_at</text>

  <rect x="20" y="178" width="60" height="26" fill="#fff" stroke="#000" stroke-width="0.8"/>
  <rect x="80" y="178" width="120" height="26" fill="#fff" stroke="#000" stroke-width="0.8"/>
  <rect x="200" y="178" width="40" height="26" fill="#fff" stroke="#000" stroke-width="0.8"/>
  <text x="26" y="195">datetime</text><text x="86" y="195">updated_at</text>

  <!-- ========== CUSTOMERS ========== -->
  <rect x="420" y="20" width="240" height="28" fill="#fff" stroke="#000" stroke-width="1"/>
  <text x="540" y="39" text-anchor="middle" font-weight="bold" font-size="13">CUSTOMERS</text>

  <rect x="420" y="48" width="70" height="26" fill="#fff" stroke="#000" stroke-width="0.8"/>
  <rect x="490" y="48" width="130" height="26" fill="#fff" stroke="#000" stroke-width="0.8"/>
  <rect x="620" y="48" width="40" height="26" fill="#fff" stroke="#000" stroke-width="0.8"/>
  <text x="426" y="65">bigint</text><text x="496" y="65">id</text><text x="640" y="65" text-anchor="middle">PK</text>

  <rect x="420" y="74" width="70" height="26" fill="#fff" stroke="#000" stroke-width="0.8"/>
  <rect x="490" y="74" width="130" height="26" fill="#fff" stroke="#000" stroke-width="0.8"/>
  <rect x="620" y="74" width="40" height="26" fill="#fff" stroke="#000" stroke-width="0.8"/>
  <text x="426" y="91">bigint</text><text x="496" y="91">user_id</text><text x="640" y="91" text-anchor="middle">FK</text>

  <rect x="420" y="100" width="70" height="26" fill="#fff" stroke="#000" stroke-width="0.8"/>
  <rect x="490" y="100" width="170" height="26" fill="#fff" stroke="#000" stroke-width="0.8"/>
  <text x="426" y="117">string</text><text x="496" y="117">company_name</text>

  <rect x="420" y="126" width="70" height="26" fill="#fff" stroke="#000" stroke-width="0.8"/>
  <rect x="490" y="126" width="170" height="26" fill="#fff" stroke="#000" stroke-width="0.8"/>
  <text x="426" y="143">string</text><text x="496" y="143">contact_name</text>

  <rect x="420" y="152" width="70" height="26" fill="#fff" stroke="#000" stroke-width="0.8"/>
  <rect x="490" y="152" width="170" height="26" fill="#fff" stroke="#000" stroke-width="0.8"/>
  <text x="426" y="169">string</text><text x="496" y="169">email</text>

  <rect x="420" y="178" width="70" height="26" fill="#fff" stroke="#000" stroke-width="0.8"/>
  <rect x="490" y="178" width="170" height="26" fill="#fff" stroke="#000" stroke-width="0.8"/>
  <text x="426" y="195">string</text><text x="496" y="195">phone</text>

  <rect x="420" y="204" width="70" height="26" fill="#fff" stroke="#000" stroke-width="0.8"/>
  <rect x="490" y="204" width="170" height="26" fill="#fff" stroke="#000" stroke-width="0.8"/>
  <text x="426" y="221">text</text><text x="496" y="221">needs</text>

  <rect x="420" y="230" width="70" height="26" fill="#fff" stroke="#000" stroke-width="0.8"/>
  <rect x="490" y="230" width="170" height="26" fill="#fff" stroke="#000" stroke-width="0.8"/>
  <text x="426" y="247">text</text><text x="496" y="247">notes</text>

  <rect x="420" y="256" width="70" height="26" fill="#fff" stroke="#000" stroke-width="0.8"/>
  <rect x="490" y="256" width="170" height="26" fill="#fff" stroke="#000" stroke-width="0.8"/>
  <text x="426" y="273">int</text><text x="496" y="273">status</text>

  <rect x="420" y="282" width="70" height="26" fill="#fff" stroke="#000" stroke-width="0.8"/>
  <rect x="490" y="282" width="170" height="26" fill="#fff" stroke="#000" stroke-width="0.8"/>
  <text x="426" y="299">datetime</text><text x="496" y="299">created_at</text>

  <rect x="420" y="308" width="70" height="26" fill="#fff" stroke="#000" stroke-width="0.8"/>
  <rect x="490" y="308" width="170" height="26" fill="#fff" stroke="#000" stroke-width="0.8"/>
  <text x="426" y="325">datetime</text><text x="496" y="325">updated_at</text>

  <!-- ========== INTERACTIONS ========== -->
  <rect x="820" y="20" width="260" height="28" fill="#fff" stroke="#000" stroke-width="1"/>
  <text x="950" y="39" text-anchor="middle" font-weight="bold" font-size="13">INTERACTIONS</text>

  <rect x="820" y="48" width="70" height="26" fill="#fff" stroke="#000" stroke-width="0.8"/>
  <rect x="890" y="48" width="150" height="26" fill="#fff" stroke="#000" stroke-width="0.8"/>
  <rect x="1040" y="48" width="40" height="26" fill="#fff" stroke="#000" stroke-width="0.8"/>
  <text x="826" y="65">bigint</text><text x="896" y="65">id</text><text x="1060" y="65" text-anchor="middle">PK</text>

  <rect x="820" y="74" width="70" height="26" fill="#fff" stroke="#000" stroke-width="0.8"/>
  <rect x="890" y="74" width="150" height="26" fill="#fff" stroke="#000" stroke-width="0.8"/>
  <rect x="1040" y="74" width="40" height="26" fill="#fff" stroke="#000" stroke-width="0.8"/>
  <text x="826" y="91">bigint</text><text x="896" y="91">customer_id</text><text x="1060" y="91" text-anchor="middle">FK</text>

  <rect x="820" y="100" width="70" height="26" fill="#fff" stroke="#000" stroke-width="0.8"/>
  <rect x="890" y="100" width="150" height="26" fill="#fff" stroke="#000" stroke-width="0.8"/>
  <rect x="1040" y="100" width="40" height="26" fill="#fff" stroke="#000" stroke-width="0.8"/>
  <text x="826" y="117">bigint</text><text x="896" y="117">user_id</text><text x="1060" y="117" text-anchor="middle">FK</text>

  <rect x="820" y="126" width="70" height="26" fill="#fff" stroke="#000" stroke-width="0.8"/>
  <rect x="890" y="126" width="190" height="26" fill="#fff" stroke="#000" stroke-width="0.8"/>
  <text x="826" y="143">int</text><text x="896" y="143">contact_type</text>

  <rect x="820" y="152" width="70" height="26" fill="#fff" stroke="#000" stroke-width="0.8"/>
  <rect x="890" y="152" width="190" height="26" fill="#fff" stroke="#000" stroke-width="0.8"/>
  <text x="826" y="169">text</text><text x="896" y="169">summary</text>

  <rect x="820" y="178" width="70" height="26" fill="#fff" stroke="#000" stroke-width="0.8"/>
  <rect x="890" y="178" width="190" height="26" fill="#fff" stroke="#000" stroke-width="0.8"/>
  <text x="826" y="195">text</text><text x="896" y="195">action_taken</text>

  <rect x="820" y="204" width="70" height="26" fill="#fff" stroke="#000" stroke-width="0.8"/>
  <rect x="890" y="204" width="190" height="26" fill="#fff" stroke="#000" stroke-width="0.8"/>
  <text x="826" y="221">date</text><text x="896" y="221">due_date</text>

  <rect x="820" y="230" width="70" height="26" fill="#fff" stroke="#000" stroke-width="0.8"/>
  <rect x="890" y="230" width="190" height="26" fill="#fff" stroke="#000" stroke-width="0.8"/>
  <text x="826" y="247">datetime</text><text x="896" y="247">contacted_at</text>

  <rect x="820" y="256" width="70" height="26" fill="#fff" stroke="#000" stroke-width="0.8"/>
  <rect x="890" y="256" width="190" height="26" fill="#fff" stroke="#000" stroke-width="0.8"/>
  <text x="826" y="273">datetime</text><text x="896" y="273">created_at</text>

  <rect x="820" y="282" width="70" height="26" fill="#fff" stroke="#000" stroke-width="0.8"/>
  <rect x="890" y="282" width="190" height="26" fill="#fff" stroke="#000" stroke-width="0.8"/>
  <text x="826" y="299">datetime</text><text x="896" y="299">updated_at</text>

  <!-- ========== USERS → CUSTOMERS リレーション ========== -->
  <!-- 1側 (||) -->
  <line x1="240" y1="87" x2="340" y2="87" stroke="#000" stroke-width="1"/>
  <line x1="248" y1="80" x2="248" y2="94" stroke="#000" stroke-width="1.5"/>
  <line x1="254" y1="80" x2="254" y2="94" stroke="#000" stroke-width="1.5"/>
  <!-- N側 circle + crow's foot -->
  <circle cx="326" cy="87" r="5" fill="#fff" stroke="#000" stroke-width="1.5"/>
  <line x1="333" y1="80" x2="340" y2="87" stroke="#000" stroke-width="1.5"/>
  <line x1="333" y1="94" x2="340" y2="87" stroke="#000" stroke-width="1.5"/>
  <line x1="340" y1="87" x2="420" y2="87" stroke="#000" stroke-width="1"/>
  <text x="330" y="76" text-anchor="middle" font-size="11">has_many</text>

  <!-- ========== CUSTOMERS → INTERACTIONS リレーション ========== -->
  <!-- 1側 (||) -->
  <line x1="660" y1="87" x2="760" y2="87" stroke="#000" stroke-width="1"/>
  <line x1="668" y1="80" x2="668" y2="94" stroke="#000" stroke-width="1.5"/>
  <line x1="674" y1="80" x2="674" y2="94" stroke="#000" stroke-width="1.5"/>
  <!-- N側 circle + crow's foot -->
  <circle cx="746" cy="87" r="5" fill="#fff" stroke="#000" stroke-width="1.5"/>
  <line x1="753" y1="80" x2="760" y2="87" stroke="#000" stroke-width="1.5"/>
  <line x1="753" y1="94" x2="760" y2="87" stroke="#000" stroke-width="1.5"/>
  <line x1="760" y1="87" x2="820" y2="87" stroke="#000" stroke-width="1"/>
  <text x="748" y="76" text-anchor="middle" font-size="11">has_many</text>

  <!-- ========== USERS → INTERACTIONS リレーション (迂回) ========== -->
  <line x1="130" y1="204" x2="130" y2="420" stroke="#000" stroke-width="1"/>
  <line x1="130" y1="420" x2="950" y2="420" stroke="#000" stroke-width="1"/>
  <line x1="950" y1="420" x2="950" y2="308" stroke="#000" stroke-width="1"/>
  <!-- 1側 -->
  <line x1="123" y1="210" x2="137" y2="210" stroke="#000" stroke-width="1.5"/>
  <line x1="123" y1="216" x2="137" y2="216" stroke="#000" stroke-width="1.5"/>
  <!-- N側 circle + crow's foot -->
  <circle cx="950" cy="320" r="5" fill="#fff" stroke="#000" stroke-width="1.5"/>
  <line x1="943" y1="314" x2="950" y2="308" stroke="#000" stroke-width="1.5"/>
  <line x1="957" y1="314" x2="950" y2="308" stroke="#000" stroke-width="1.5"/>
  <text x="60" y="340" font-size="11">has_many</text>

</svg>
